<svg xmlns:dc="http://purl.org/dc/elements/1.1/" xmlns:cc="http://creativecommons.org/ns#" xmlns:rdf="http://www.w3.org/1999/02/22-rdf-syntax-ns#" xmlns:svg="http://www.w3.org/2000/svg" xmlns="http://www.w3.org/2000/svg" viewBox="0 0 280 280" fill="none"><metadata><rdf:RDF><cc:Work><dc:format>image/svg+xml</dc:format><dc:type rdf:resource="http://purl.org/dc/dcmitype/StillImage"/><dc:title>Avataaars</dc:title><dc:creator><cc:Agent><dc:title>Pablo Stanley</dc:title></cc:Agent></dc:creator><dc:source>https://avataaars.com/</dc:source><cc:license rdf:resource="https://avataaars.com/"/><dc:contributor><cc:Agent><dc:title>Florian Körner</dc:title></cc:Agent></dc:contributor></cc:Work></rdf:RDF></metadata><mask id="avatarsRadiusMask"><rect width="280" height="280" rx="0" ry="0" x="0" y="0" fill="#fff"/></mask><g mask="url(#avatarsRadiusMask)"><g transform="translate(40, 36)"><path d="M100 0C69.072 0 44 25.072 44 56v6.166c-5.675.952-10 5.888-10 11.834v14c0 6.052 4.48 11.058 10.305 11.881 2.067 19.806 14.458 36.541 31.695 44.73V163h-4c-39.764 0-72 32.236-72 72v9h200v-9c0-39.764-32.236-72-72-72h-4v-18.389c17.237-8.189 29.628-24.924 31.695-44.73C161.52 99.058 166 94.052 166 88V74c0-5.946-4.325-10.882-10-11.834V56c0-30.928-25.072-56-56-56z" fill="#614335"/><path d="M76 144.611v8A55.79 55.79 0 00100 158a55.789 55.789 0 0024-5.389v-8A55.789 55.789 0 01100 150a55.79 55.79 0 01-24-5.389z" fill="#000" fill-opacity=".1"/></g><g transform="translate(8, 170)"><path d="M132 57.052c14.912 0 27-11.193 27-25 0-1.015-.065-2.017-.192-3H160c39.764 0 72 32.235 72 72V110H32v-8.948c0-39.765 32.236-72 72-72h1.192a23.418 23.418 0 00-.192 3c0 13.807 12.088 25 27 25z" fill="#E6E6E6"/><path d="M100.778 29.122c.072-.378.145-.752.222-1.122-2.959.054-6 1-6 1l-.42.662C59.267 34.276 32 64.48 32 101.052V110h74s-10.7-51.555-5.238-80.793l.023-.085h-.007zM158 110s11-53 5-82c2.959.054 6 1 6 1l.419.662C204.733 34.276 232 64.48 232 101.052V110h-74z" fill="#25557C"/><path d="M183.423 85.77l.871-2.24 6.262-4.697a4 4 0 014.856.043L202 84l-18.577 1.77z" fill="#E6E6E6"/><path fill-rule="evenodd" clip-rule="evenodd" d="M101 28c-6 29 5 82 5 82H90L76 74l6-9-6-6 19-30s3.041-.946 6-1zm62 0c6 29-5 82-5 82h16l14-36-6-9 6-6-19-30s-3.041-.946-6-1z" fill="#000" fill-opacity=".15"/><path d="M108 21.539c-6.772 4.597-11 11.117-11 18.349 0 7.4 4.428 14.057 11.48 18.669l5.941-4.68 4.579.33-1-3.15.078-.062C111.978 47.853 108 42.7 108 36.877V21.539zm48 15.338c0 5.823-3.978 10.976-10.078 14.118l.078.062-1 3.15 4.579-.33 5.941 4.68c7.052-4.612 11.48-11.268 11.48-18.67 0-7.23-4.228-13.751-11-18.348v15.338z" fill="#F2F2F2"/></g><g transform="translate(86, 134)"><path fill-rule="evenodd" clip-rule="evenodd" d="M40 15c0 7.732 6.268 14 14 14s14-6.268 14-14" fill="#000" fill-opacity=".7"/></g><g transform="translate(112, 122)"><path fill-rule="evenodd" clip-rule="evenodd" d="M16 8c0 4.418 5.373 8 12 8s12-3.582 12-8" fill="#000" fill-opacity=".16"/></g><g transform="translate(84, 90)"><path fill-rule="evenodd" clip-rule="evenodd" d="M16.16 22.447C18.007 18.648 22.164 16 26.998 16c4.816 0 8.961 2.63 10.817 6.407.552 1.122-.233 2.04-1.024 1.36-2.451-2.107-5.932-3.423-9.793-3.423-3.74 0-7.124 1.235-9.56 3.228-.891.728-1.818-.014-1.278-1.125zm58 0C76.007 18.648 80.164 16 84.998 16c4.816 0 8.961 2.63 10.817 6.407.552 1.122-.233 2.04-1.024 1.36-2.451-2.107-5.932-3.423-9.793-3.423-3.74 0-7.124 1.235-9.56 3.228-.891.728-1.818-.014-1.278-1.125z" fill="#000" fill-opacity=".6"/></g><g transform="translate(84, 82)"><path fill-rule="evenodd" clip-rule="evenodd" d="M26.547 6.148c-5.807.269-15.195 4.488-14.953 10.344.008.192.29.276.427.129 2.755-2.96 22.316-5.95 29.205-4.365.63.145 1.11-.477.71-.927-3.422-3.848-10.186-5.426-15.389-5.18zm59.906 0c5.807.269 15.195 4.488 14.953 10.344-.008.192-.29.276-.427.129-2.755-2.96-22.316-5.95-29.205-4.365-.63.145-1.11-.477-.71-.927 3.422-3.848 10.186-5.426 15.389-5.18z" fill="#000" fill-opacity=".6"/></g><g transform="translate(7, 0)"><path d="M250 70.5c0 .8-.033 1.59-.097 2.374C256.882 82.449 261 94.244 261 107a57.867 57.867 0 01-3.667 20.341A28.6 28.6 0 01258 133.5c0 9.788-4.934 18.424-12.451 23.555C236.837 174.792 218.594 187 197.5 187a54.12 54.12 0 01-5.81-.312A36.355 36.355 0 01168.5 195c-4.018 0-7.884-.649-11.5-1.849v-12.54c17.531-8.328 30.048-25.496 31.791-45.744C194.569 134.002 199 129.019 199 123v-13c0-5.946-4.325-10.882-10-11.834V92c0-5.441-.776-10.702-2.224-15.676l1.377 12.87-11.34-24-45.136-19.523-30.114 10.557L80.065 76.42l-.045-2.609A55.927 55.927 0 0077 92v6.166c-5.675.952-10 5.888-10 11.834v13c0 6.019 4.43 11.002 10.209 11.867 1.743 20.248 14.26 37.416 31.791 45.744v10.944A36.36 36.36 0 0193.5 195a36.352 36.352 0 01-23.19-8.312 54.13 54.13 0 01-5.81.312c-21.094 0-39.337-12.208-48.049-29.945C8.934 151.924 4 143.288 4 133.5c0-2.115.23-4.175.667-6.159A57.872 57.872 0 011 107c0-12.756 4.118-24.55 11.097-34.126A28.892 28.892 0 0112 70.5c0-11.297 6.573-21.06 16.104-25.67 8.433-18.128 26.454-30.894 47.546-31.78A28.406 28.406 0 0195.5 5c2.327 0 4.589.279 6.754.805C111.776 2.058 122.148 0 133 0c10.346 0 20.255 1.87 29.408 5.292A28.728 28.728 0 01166.5 5a28.407 28.407 0 0119.85 8.05c21.092.886 39.113 13.652 47.546 31.78C243.427 49.44 250 59.203 250 70.5z" fill="#D6B370"/><path d="M188.369 98.975a48.7 48.7 0 00.631-7.823C189 62.35 163.704 39 132.5 39S76 62.35 76 91.152c0 2.659.216 5.271.631 7.823 4.09-25.092 27.545-44.33 55.869-44.33 28.324 0 51.78 19.238 55.869 44.33z" fill="#92D9FF"/></g><g transform="translate(69, 85)"><path fill-rule="evenodd" clip-rule="evenodd" d="M111.712 10.488c4.666.16 8 .887 10.548 4.518 3.012.156 6.253.374 8.981 1.633 3.385 1.562 3.908 5.1-.359 5.587-1.859.213-3.72-.12-5.552-.448l-.186-.033a9.348 9.348 0 00-.339-.054c1.104 9.461-6.207 20.869-14.228 24.346-10.977 4.76-23.24-.508-29.043-10.033-2.626-4.31-4.142-10.515-4.466-15.86-.42-.204-.83-.441-1.23-.674-.38-.22-.754-.437-1.119-.615-2.007-.978-5.338-1.098-7.506 0-.338.172-.685.374-1.039.582-.426.25-.864.505-1.313.722-.325 5.343-1.841 11.54-4.465 15.847-5.804 9.526-18.067 14.793-29.044 10.033-8.021-3.477-15.333-14.886-14.227-24.348a9.563 9.563 0 00-.338.054l-.185.033c-1.833.328-3.694.66-5.553.448-4.267-.487-3.744-4.025-.359-5.587 2.728-1.259 5.969-1.477 8.982-1.633 2.547-3.63 5.881-4.355 10.546-4.515l23.291-.457c5.189-.14 9.718-.01 11.033 4.606 2.089-.814 4.505-1.255 6.35-1.255 1.858 0 4.348.447 6.49 1.274 1.306-4.638 5.842-4.767 11.039-4.627l23.291.456zm-24.031 6.785c-2.372.022-3.493.416-3.897 2.89-.41 2.505-.012 5.322.46 7.79.721 3.767 1.92 7.459 4.708 10.213 1.47 1.45 3.261 2.606 5.167 3.396 1.012.419 2.081.722 3.15.951.114.025.544.09.963.153.626.094 1.228.185.711.131l-.095-.01-.065-.007a47.075 47.075 0 01.16.017c3.724.397 7.719.312 10.814-2.047 3.533-2.692 5.952-6.952 7.016-11.196.623-2.483 1.93-8.422-.459-10.407-2.737-2.275-28.633-1.874-28.633-1.874zm-33.432.002c2.372.023 3.493.417 3.897 2.89.41 2.506.011 5.322-.46 7.79-.721 3.768-1.92 7.46-4.708 10.214-1.47 1.45-3.261 2.606-5.167 3.395-1.012.42-2.081.722-3.15.952-.114.024-.544.09-.962.152-.64.097-1.255.19-.678.128-3.734.4-7.743.323-10.849-2.044-3.532-2.692-5.952-6.952-7.015-11.196-.623-2.483-1.93-8.422.459-10.407 2.737-2.274 28.633-1.874 28.633-1.874zM43.318 42.764z" fill="#000" fill-opacity=".1"/><path fill-rule="evenodd" clip-rule="evenodd" d="M111.712 8.488c4.666.16 8 .887 10.548 4.518 3.012.156 6.253.374 8.981 1.633 3.385 1.562 3.908 5.1-.359 5.587-1.859.213-3.72-.12-5.552-.448l-.186-.033a9.348 9.348 0 00-.339-.054c1.104 9.461-6.207 20.869-14.228 24.346-10.977 4.76-23.24-.508-29.043-10.033-2.626-4.31-4.142-10.515-4.466-15.86-.42-.204-.83-.441-1.23-.674-.38-.22-.754-.437-1.119-.615-2.007-.978-5.338-1.098-7.506 0-.338.172-.685.374-1.039.582-.426.25-.864.505-1.313.722-.325 5.343-1.841 11.54-4.465 15.847-5.804 9.526-18.067 14.793-29.044 10.033-8.021-3.477-15.333-14.886-14.227-24.348a9.563 9.563 0 00-.338.054l-.185.033c-1.833.328-3.694.66-5.553.448-4.267-.487-3.744-4.025-.359-5.587 2.728-1.259 5.969-1.477 8.982-1.633 2.547-3.63 5.881-4.355 10.546-4.515l23.291-.457c5.189-.14 9.718-.01 11.033 4.606 2.089-.814 4.505-1.255 6.35-1.255 1.858 0 4.348.447 6.49 1.274 1.306-4.638 5.842-4.767 11.039-4.627l23.291.456zm-24.031 6.785c-2.372.022-3.493.416-3.897 2.89-.41 2.505-.012 5.322.46 7.79.721 3.767 1.92 7.459 4.708 10.213 1.47 1.45 3.261 2.606 5.167 3.396 1.012.419 2.081.722 3.15.951.114.025.544.09.963.153.626.094 1.228.185.711.131l-.095-.01-.065-.007a47.075 47.075 0 01.16.017c3.724.397 7.719.312 10.814-2.047 3.533-2.692 5.952-6.952 7.016-11.196.623-2.483 1.93-8.422-.459-10.407-2.737-2.275-28.633-1.874-28.633-1.874zm-33.432.002c2.372.022 3.493.417 3.897 2.89.41 2.506.011 5.322-.46 7.79-.721 3.768-1.92 7.46-4.708 10.214-1.47 1.45-3.261 2.606-5.167 3.395-1.012.42-2.081.722-3.15.952-.114.024-.544.09-.962.152-.64.097-1.255.19-.678.128-3.734.4-7.743.323-10.849-2.044-3.532-2.692-5.952-6.952-7.015-11.196-.623-2.483-1.93-8.422.459-10.407 2.737-2.275 28.633-1.874 28.633-1.874zM43.318 40.764z" fill="#FFFFB1"/></g></g></svg>