<svg xmlns:dc="http://purl.org/dc/elements/1.1/" xmlns:cc="http://creativecommons.org/ns#" xmlns:rdf="http://www.w3.org/1999/02/22-rdf-syntax-ns#" xmlns:svg="http://www.w3.org/2000/svg" xmlns="http://www.w3.org/2000/svg" viewBox="0 0 280 280" fill="none"><metadata><rdf:RDF><cc:Work><dc:format>image/svg+xml</dc:format><dc:type rdf:resource="http://purl.org/dc/dcmitype/StillImage"/><dc:title>Avataaars</dc:title><dc:creator><cc:Agent><dc:title>Pablo Stanley</dc:title></cc:Agent></dc:creator><dc:source>https://avataaars.com/</dc:source><cc:license rdf:resource="https://avataaars.com/"/><dc:contributor><cc:Agent><dc:title>Florian Körner</dc:title></cc:Agent></dc:contributor></cc:Work></rdf:RDF></metadata><mask id="avatarsRadiusMask"><rect width="280" height="280" rx="0" ry="0" x="0" y="0" fill="#fff"/></mask><g mask="url(#avatarsRadiusMask)"><g transform="translate(40, 36)"><path d="M100 0C69.072 0 44 25.072 44 56v6.166c-5.675.952-10 5.888-10 11.834v14c0 6.052 4.48 11.058 10.305 11.881 2.067 19.806 14.458 36.541 31.695 44.73V163h-4c-39.764 0-72 32.236-72 72v9h200v-9c0-39.764-32.236-72-72-72h-4v-18.389c17.237-8.189 29.628-24.924 31.695-44.73C161.52 99.058 166 94.052 166 88V74c0-5.946-4.325-10.882-10-11.834V56c0-30.928-25.072-56-56-56z" fill="#EDB98A"/><path d="M76 144.611v8A55.79 55.79 0 00100 158a55.789 55.789 0 0024-5.389v-8A55.789 55.789 0 01100 150a55.79 55.79 0 01-24-5.389z" fill="#000" fill-opacity=".1"/></g><g transform="translate(8, 170)"><path d="M196 38.632V110H68V38.632a71.525 71.525 0 0126-8.944V74h76V29.688a71.523 71.523 0 0126 8.944z" fill="#25557C"/><path d="M86 83a5 5 0 11-10 0 5 5 0 0110 0zm102 0a5 5 0 11-10 0 5 5 0 0110 0z" fill="#F4F4F4"/></g><g transform="translate(86, 134)"><path fill-rule="evenodd" clip-rule="evenodd" d="M29 15.609C30.41 25.23 41.062 33 54 33c12.968 0 23.646-7.817 25-18.26.101-.4-.225-1.74-2.174-1.74H31.174c-1.79 0-2.304 1.24-2.174 2.609z" fill="#000" fill-opacity=".7"/><path d="M70 13H39a5 5 0 005 5h21a5 5 0 005-5z" fill="#fff"/><path d="M43 23.5l.001.067-.001.063v8.87C43 38.851 48.149 44 54.5 44S66 38.851 66 32.5v-8.87l-.001-.063L66 23.5c0-1.933-2.91-3.5-6.5-3.5-2.01 0-3.808.491-5 1.264-1.192-.773-2.99-1.264-5-1.264-3.59 0-6.5 1.567-6.5 3.5z" fill="#FF4F6D"/></g><g transform="translate(112, 122)"><path fill-rule="evenodd" clip-rule="evenodd" d="M16 8c0 4.418 5.373 8 12 8s12-3.582 12-8" fill="#000" fill-opacity=".16"/></g><g transform="translate(84, 90)"><path d="M44 20.727c0 4.268-6.268 7.727-14 7.727s-14-3.46-14-7.727S22.268 13 30 13s14 3.46 14 7.727zm52 0c0 4.268-6.268 7.727-14 7.727s-14-3.46-14-7.727S74.268 13 82 13s14 3.46 14 7.727z" fill="#fff"/><path d="M32.82 28.297c-.91.103-1.854.157-2.82.157-.966 0-1.91-.054-2.82-.157a6 6 0 115.64 0zm52 0c-.91.103-1.854.157-2.82.157-.966 0-1.91-.054-2.82-.157a6 6 0 115.64 0z" fill="#000" fill-opacity=".7"/></g><g transform="translate(84, 82)"><path fill-rule="evenodd" clip-rule="evenodd" d="M44.095 17.125c.004-.009.004-.009 0 0zM19.284 5.005c-2.368-.266-4.858.497-6.427 2.434-.59.728-1.553 2.48-1.509 3.417.017.356.225.375 1.124.59 1.646.392 4.5-1.114 6.355-.972 2.582.198 5.046 1.395 7.283 2.679 3.838 2.202 8.354 6.84 13.093 6.598.353-.018 5.42-1.739 4.41-2.723-.316-.484-3.034-1.128-3.501-1.361-2.172-1.084-4.367-2.448-6.443-3.718-4.528-2.772-8.944-6.338-14.385-6.944zm48.746 12.12c-.004-.009-.004-.009 0 0zm24.876-12.12c2.367-.266 4.857.497 6.426 2.434.59.728 1.554 2.48 1.509 3.417-.017.356-.225.375-1.124.59-1.645.392-4.5-1.114-6.355-.972-2.582.198-5.046 1.395-7.282 2.679-3.839 2.202-8.355 6.84-13.093 6.598-.353-.018-5.42-1.739-4.411-2.723.317-.484 3.034-1.128 3.502-1.361 2.171-1.084 4.367-2.448 6.442-3.718 4.528-2.772 8.945-6.338 14.386-6.944z" fill="#000" fill-opacity=".6"/></g><g transform="translate(7, 0)"><path d="M67 65c0-8.16 1.603-15.947 4.51-23.06-3.87-8.946-8.335-22.964-3.874-32.82 8.002-2.427 17.806 1.335 25.635 5.725C103.127 8.007 115.096 4 128 4h10c12.916 0 24.894 4.014 34.755 10.862 7.833-4.398 17.652-8.172 25.664-5.742 4.473 9.88-.026 23.942-3.902 32.884A60.815 60.815 0 01199 65v8H67v-8z" fill="#FFAFB9"/><path d="M194.517 42.005c3.876-8.943 8.375-23.005 3.902-32.885-8.012-2.43-17.831 1.344-25.664 5.742 9.649 6.702 17.272 16.118 21.762 27.142zM93.27 14.845c-7.828-4.39-17.632-8.152-25.634-5.725-4.461 9.856.005 23.874 3.874 32.82 4.498-11.007 12.118-20.405 21.76-27.095z" fill="#000" fill-opacity=".24"/><path d="M190.2 33.42c1.986-6.006 3.49-12.863 1.486-16.106-2.669-1.154-7.583.48-12.403 2.778A61.281 61.281 0 01190.2 33.42zM86.66 20.144c-4.925-2.38-10.003-4.116-12.733-2.936-2.058 3.33-.417 10.47 1.647 16.589A61.277 61.277 0 0186.66 20.144z" fill="#fff" fill-opacity=".3"/><path fill-rule="evenodd" clip-rule="evenodd" d="M64 69.772c0-2.389 1.058-4.64 3.046-5.963C74.846 58.62 97.47 46 133.073 46c35.606 0 58.137 12.62 65.898 17.81 1.979 1.323 3.029 3.567 3.029 5.947V99.95c0 3.306-3.907 5.385-6.783 3.756C184.842 97.829 163.109 88 133.804 88c-29.759 0-52.525 10.137-63.172 15.977-2.853 1.565-6.632-.496-6.632-3.749V69.772z" fill="#000" fill-opacity=".1"/><path fill-rule="evenodd" clip-rule="evenodd" d="M64 67.772c0-2.389 1.058-4.64 3.046-5.963C74.846 56.62 97.47 44 133.073 44c35.606 0 58.137 12.62 65.898 17.81 1.979 1.323 3.029 3.567 3.029 5.947V97.95c0 3.306-3.907 5.385-6.783 3.756C184.842 95.829 163.109 86 133.804 86c-29.759 0-52.525 10.137-63.172 15.977-2.853 1.565-6.632-.496-6.632-3.75V67.773z" fill="#F4F4F4"/></g></g></svg>